<?xml version="1.0" encoding="iso-8859-1"?>
<!-- Generator: Adobe Illustrator 16.0.0, SVG Export Plug-In . SVG Version: 6.00 Build 0)  -->
<!DOCTYPE svg PUBLIC "-//W3C//DTD SVG 1.1//EN" "http://www.w3.org/Graphics/SVG/1.1/DTD/svg11.dtd">
<svg version="1.1" id="Capa_1" xmlns="http://www.w3.org/2000/svg" xmlns:xlink="http://www.w3.org/1999/xlink" x="0px" y="0px"
	 width="555.485px" height="555.485px" viewBox="0 0 555.485 555.485" style="enable-background:new 0 0 555.485 555.485;"
	 xml:space="preserve">
<g>
	<g>
		<polygon points="202.878,412.048 193.602,555.485 353.439,555.485 344.154,412.048 		"/>
		<polygon points="218.331,172.985 212.153,268.61 334.878,268.61 328.702,172.985 		"/>
		<polygon points="210.298,297.298 204.733,383.36 342.299,383.36 336.734,297.298 		"/>
		<polygon points="359.024,287.735 359.024,278.173 345.082,278.173 339.985,278.173 335.5,278.173 211.532,278.173 
			207.057,278.173 201.95,278.173 186.899,278.173 186.899,287.735 201.338,287.735 206.435,287.735 210.92,287.735 
			336.122,287.735 340.607,287.735 345.704,287.735 		"/>
		<polygon points="359.024,134.735 335.806,134.735 211.226,134.735 196.461,134.735 196.461,163.423 209.371,163.423 
			214.468,163.423 218.953,163.423 328.08,163.423 332.565,163.423 337.662,163.423 359.024,163.423 		"/>
		<polygon points="347.406,392.923 342.92,392.923 204.111,392.923 199.636,392.923 194.53,392.923 177.336,392.923 
			177.336,402.485 193.918,402.485 199.015,402.485 203.5,402.485 343.542,402.485 348.017,402.485 353.124,402.485 
			368.586,402.485 368.586,392.923 352.502,392.923 		"/>
		<path d="M270.972,0c-22.013,0-39.914,19.985-40.908,39.11h81.808C310.876,19.985,292.976,0,270.972,0z"/>
		<path d="M215.711,125.173h115.62l-13.598-76.5h-88.415L215.711,125.173z M274.367,63.992c11.733,0,21.258,9.515,21.258,21.257
			s-9.515,21.257-21.258,21.257c-11.742,0-21.257-9.515-21.257-21.257S262.634,63.992,274.367,63.992z"/>
		<polygon points="206.024,66.545 100.836,39.34 100.836,127.755 206.024,100.549 		"/>
		<polygon points="349.461,100.549 454.649,127.755 454.649,39.34 349.461,66.545 		"/>
	</g>
</g>
<g>
</g>
<g>
</g>
<g>
</g>
<g>
</g>
<g>
</g>
<g>
</g>
<g>
</g>
<g>
</g>
<g>
</g>
<g>
</g>
<g>
</g>
<g>
</g>
<g>
</g>
<g>
</g>
<g>
</g>
</svg>
